<svg id="visual" viewBox="0 0 900 600" width="900" height="600" xmlns="http://www.w3.org/2000/svg" xmlns:xlink="http://www.w3.org/1999/xlink" version="1.1"><rect x="0" y="0" width="900" height="600" fill="#001220"></rect><path d="M0 352L21.5 357.3C43 362.7 86 373.3 128.8 376.2C171.7 379 214.3 374 257.2 369C300 364 343 359 385.8 356.8C428.7 354.7 471.3 355.3 514.2 368.7C557 382 600 408 642.8 406.8C685.7 405.7 728.3 377.3 771.2 370.5C814 363.7 857 378.3 878.5 385.7L900 393L900 601L878.5 601C857 601 814 601 771.2 601C728.3 601 685.7 601 642.8 601C600 601 557 601 514.2 601C471.3 601 428.7 601 385.8 601C343 601 300 601 257.2 601C214.3 601 171.7 601 128.8 601C86 601 43 601 21.5 601L0 601Z" fill="#009473"></path><path d="M0 451L21.5 449.8C43 448.7 86 446.3 128.8 448.3C171.7 450.3 214.3 456.7 257.2 454C300 451.3 343 439.7 385.8 435.7C428.7 431.7 471.3 435.3 514.2 438.2C557 441 600 443 642.8 447.5C685.7 452 728.3 459 771.2 455.7C814 452.3 857 438.7 878.5 431.8L900 425L900 601L878.5 601C857 601 814 601 771.2 601C728.3 601 685.7 601 642.8 601C600 601 557 601 514.2 601C471.3 601 428.7 601 385.8 601C343 601 300 601 257.2 601C214.3 601 171.7 601 128.8 601C86 601 43 601 21.5 601L0 601Z" fill="#00a26b"></path><path d="M0 445L21.5 454C43 463 86 481 128.8 488.5C171.7 496 214.3 493 257.2 489.2C300 485.3 343 480.7 385.8 476.7C428.7 472.7 471.3 469.3 514.2 470C557 470.7 600 475.3 642.8 472C685.7 468.7 728.3 457.3 771.2 462.3C814 467.3 857 488.7 878.5 499.3L900 510L900 601L878.5 601C857 601 814 601 771.2 601C728.3 601 685.7 601 642.8 601C600 601 557 601 514.2 601C471.3 601 428.7 601 385.8 601C343 601 300 601 257.2 601C214.3 601 171.7 601 128.8 601C86 601 43 601 21.5 601L0 601Z" fill="#00af5d"></path><path d="M0 510L21.5 509.7C43 509.3 86 508.7 128.8 512.7C171.7 516.7 214.3 525.3 257.2 528.8C300 532.3 343 530.7 385.8 523.5C428.7 516.3 471.3 503.7 514.2 497.3C557 491 600 491 642.8 499.2C685.7 507.3 728.3 523.7 771.2 527.5C814 531.3 857 522.7 878.5 518.3L900 514L900 601L878.5 601C857 601 814 601 771.2 601C728.3 601 685.7 601 642.8 601C600 601 557 601 514.2 601C471.3 601 428.7 601 385.8 601C343 601 300 601 257.2 601C214.3 601 171.7 601 128.8 601C86 601 43 601 21.5 601L0 601Z" fill="#1dbb48"></path><path d="M0 573L21.5 571.2C43 569.3 86 565.7 128.8 558.5C171.7 551.3 214.3 540.7 257.2 537.2C300 533.7 343 537.3 385.8 537.3C428.7 537.3 471.3 533.7 514.2 536C557 538.3 600 546.7 642.8 550.5C685.7 554.3 728.3 553.7 771.2 548.7C814 543.7 857 534.3 878.5 529.7L900 525L900 601L878.5 601C857 601 814 601 771.2 601C728.3 601 685.7 601 642.8 601C600 601 557 601 514.2 601C471.3 601 428.7 601 385.8 601C343 601 300 601 257.2 601C214.3 601 171.7 601 128.8 601C86 601 43 601 21.5 601L0 601Z" fill="#3dc724"></path></svg>